<svg xmlns="http://www.w3.org/2000/svg" version="1.1" xmlns:xlink="http://www.w3.org/1999/xlink" xmlns:svgjs="http://svgjs.dev/svgjs" width="1500" height="1500" viewBox="0 0 1500 1500"><rect width="1500" height="1500" fill="#000000"></rect><g transform="matrix(0.6666666666666666,0,0,0.6666666666666666,250.2433787136598,446)"><svg viewBox="0 0 296 180" data-background-color="#000000" preserveAspectRatio="xMidYMid meet" height="912" width="1500" xmlns="http://www.w3.org/2000/svg" xmlns:xlink="http://www.w3.org/1999/xlink"><g id="tight-bounds" transform="matrix(1,0,0,1,-0.0720400992433099,0)"><svg viewBox="0 0 296.14368103876706 180" height="180" width="296.14368103876706"><rect width="296.1440801984866" height="180" fill="#ffffff" mask="url(#afc80103-a2f1-48f4-a679-ab61da8ce3d1)" data-fill-palette-color="tertiary"></rect><g><svg viewBox="0 0 356.12052 216.4547066314364" height="180" width="296.14368103876706"><g transform="matrix(1,0,0,1,0,105.48148749145471)"><svg viewBox="0 0 356.12052 110.9732191399817" height="110.9732191399817" width="356.12052"><g><path d="M0 110.973v-110.973h356.121v110.973z" fill="#ffffff" stroke="transparent" stroke-width="0" rx="0%" data-fill-palette-color="tertiary"></path><path d="M3.283 107.69v-104.407h349.554v104.407z" fill="#000000" stroke="transparent" stroke-width="0" rx="0%" data-fill-palette-color="quaternary"></path><path d="M9.85 101.123v-91.273h336.421v91.273z" fill="#ffffff" stroke="transparent" stroke-width="0" data-fill-palette-color="tertiary"></path></g><g transform="matrix(1,0,0,1,19.69974,19.69974)" id="textblocktransform"><svg viewBox="0 0 316.72104 71.5737391399817" height="71.5737391399817" width="316.72104" id="textblock"><g><svg viewBox="0 0 316.72104 71.5737391399817" height="71.5737391399817" width="316.72104"><g transform="matrix(1,0,0,1,0,0)"><svg width="316.72104" viewBox="0.34 -35.6 160.1 36.190000000000005" height="71.5737391399817" data-palette-color="#000000"><path d="M25.44-34.33L25.44-34.33 24.07-24.02Q23.36-24.22 22.66-24.29 21.95-24.37 21.24-24.37L21.24-24.37Q19.43-24.37 17.8-23.89 16.16-23.41 14.9-22.44 13.65-21.46 12.9-20 12.16-18.53 12.16-16.55L12.16-16.55Q12.16-15.28 12.56-14.36 12.96-13.43 13.7-12.82 14.43-12.21 15.43-11.91 16.43-11.62 17.63-11.62L17.63-11.62Q18.53-11.62 19.51-11.82 20.48-12.01 21.44-12.33 22.39-12.65 23.29-13.06 24.19-13.48 24.95-13.92L24.95-13.92 23.97-2.44Q23.02-1.95 21.91-1.57 20.8-1.2 19.63-0.92 18.46-0.63 17.29-0.49 16.11-0.34 15.04-0.34L15.04-0.34Q11.94-0.34 9.25-1.49 6.57-2.64 4.59-4.64 2.61-6.64 1.48-9.36 0.34-12.08 0.34-15.23L0.34-15.23Q0.34-19.41 1.54-23.11 2.73-26.81 5.05-29.59 7.37-32.37 10.8-33.98 14.23-35.6 18.7-35.6L18.7-35.6Q20.39-35.6 22.16-35.33 23.93-35.06 25.44-34.33ZM56.76-18.7L56.76-18.7Q56.76-16.48 56.25-14.42 55.73-12.35 54.77-10.55 53.81-8.74 52.43-7.24 51.05-5.74 49.33-4.66 47.6-3.59 45.58-2.99 43.55-2.39 41.28-2.39L41.28-2.39Q39.08-2.39 37.09-2.95 35.1-3.52 33.37-4.53 31.64-5.54 30.23-6.97 28.83-8.4 27.84-10.14 26.85-11.89 26.3-13.89 25.75-15.89 25.75-18.07L25.75-18.07Q25.75-20.19 26.27-22.23 26.78-24.27 27.74-26.07 28.71-27.88 30.08-29.39 31.44-30.91 33.14-32.01 34.84-33.11 36.81-33.72 38.79-34.33 40.99-34.33L40.99-34.33Q44.53-34.33 47.45-33.23 50.36-32.13 52.43-30.09 54.49-28.05 55.62-25.16 56.76-22.27 56.76-18.7ZM45.92-18.07L45.92-18.07Q45.92-19.12 45.62-20.1 45.31-21.09 44.72-21.86 44.14-22.63 43.27-23.11 42.4-23.58 41.28-23.58L41.28-23.58Q40.13-23.58 39.23-23.17 38.33-22.75 37.68-22.03 37.03-21.31 36.69-20.35 36.35-19.38 36.35-18.31L36.35-18.31Q36.35-17.29 36.64-16.26 36.94-15.23 37.52-14.4 38.11-13.57 38.97-13.06 39.84-12.55 40.99-12.55L40.99-12.55Q42.14-12.55 43.05-13 43.97-13.45 44.6-14.22 45.24-14.99 45.58-15.99 45.92-16.99 45.92-18.07ZM76.41-34.47L88.23-31.54 77.44-18.7 87.35-1.9 76.02 0.1 68.6-9.96 68.21-0.39 58.05 0 58.83-34.96 70.21-34.33 69.33-24.27 76.41-34.47ZM106.54-34.47L118.35-31.54 107.56-18.7 117.47-1.9 106.14 0.1 98.72-9.96 98.33-0.39 88.18 0 88.96-34.96 100.33-34.33 99.46-24.27 106.54-34.47ZM118.23-33.69L131.22-34.38 129.51-1.12 119.2-0.59 118.23-33.69ZM160.44-19.73L160.44-19.73Q160.44-17.6 160.14-15.48L160.14-15.48Q155.97-15.21 151.84-14.61 147.72-14.01 143.59-13.43L143.59-13.43Q144.23-11.67 145.58-10.62 146.94-9.57 148.82-9.57L148.82-9.57Q149.79-9.57 150.95-9.94 152.11-10.3 153.26-10.85 154.41-11.4 155.46-12.04 156.51-12.67 157.26-13.18L157.26-13.18 156.09-2.1Q155.14-1.37 154.03-0.85 152.92-0.34 151.72-0.02 150.52 0.29 149.3 0.44 148.08 0.59 146.91 0.59L146.91 0.59Q144.49 0.59 142.49-0.07 140.49-0.73 138.87-1.92 137.24-3.1 136.02-4.71 134.8-6.32 134-8.23 133.19-10.13 132.78-12.26 132.36-14.38 132.36-16.55L132.36-16.55Q132.36-18.82 132.78-21.09 133.19-23.36 134.03-25.46 134.88-27.56 136.16-29.36 137.44-31.15 139.15-32.5 140.86-33.84 143.02-34.59 145.18-35.35 147.79-35.35L147.79-35.35Q149.96-35.35 151.76-34.75 153.55-34.16 154.96-33.09 156.36-32.03 157.4-30.57 158.43-29.1 159.11-27.36 159.78-25.61 160.11-23.67 160.44-21.73 160.44-19.73ZM150.67-20.46L150.67-21Q150.67-21.68 150.52-22.4 150.38-23.12 150.05-23.71 149.72-24.29 149.18-24.67 148.64-25.05 147.84-25.05L147.84-25.05Q146.86-25.05 146.12-24.52 145.37-24 144.84-23.21 144.3-22.41 143.96-21.48 143.62-20.56 143.44-19.78L143.44-19.78 150.67-20.46Z" opacity="1" transform="matrix(1,0,0,1,0,0)" fill="#000000" class="wordmark-text-0" data-fill-palette-color="quaternary" id="text-0"></path></svg></g></svg></g></svg></g></svg></g><g transform="matrix(1,0,0,1,122.42062453605672,0)"><svg viewBox="0 0 111.27927092788656 98.91490749145471" height="98.91490749145471" width="111.27927092788656"><g><svg xmlns="http://www.w3.org/2000/svg" xmlns:xlink="http://www.w3.org/1999/xlink" version="1.1" x="0" y="0" viewBox="0 0 504 448" style="enable-background:new 0 0 504 448;" xml:space="preserve" height="98.91490749145471" width="111.27927092788656" class="icon-icon-0" data-fill-palette-color="accent" id="icon-0"></svg></g></svg></g><g></g></svg></g><defs></defs><mask id="0459de07-52a0-42fb-9a50-8733e871615b"><g id="SvgjsG1383"><svg viewBox="0 0 296.14368103876706 180" height="180" width="296.14368103876706"><g><svg viewBox="0 0 356.12052 216.4547066314364" height="180" width="296.14368103876706"><g transform="matrix(1,0,0,1,0,105.48148749145471)"><svg viewBox="0 0 356.12052 110.9732191399817" height="110.9732191399817" width="356.12052"><g><path d="M0 110.973v-110.973h356.121v110.973z" fill="black" stroke="transparent" stroke-width="0" rx="0%"></path><path d="M3.283 107.69v-104.407h349.554v104.407z" fill="black" stroke="transparent" stroke-width="0" rx="0%"></path><path d="M9.85 101.123v-91.273h336.421v91.273z" fill="black" stroke="transparent" stroke-width="0"></path></g><g transform="matrix(1,0,0,1,19.69974,19.69974)" id="SvgjsG1382"><svg viewBox="0 0 316.72104 71.5737391399817" height="71.5737391399817" width="316.72104" id="SvgjsSvg1381"><g><svg viewBox="0 0 316.72104 71.5737391399817" height="71.5737391399817" width="316.72104"><g transform="matrix(1,0,0,1,0,0)"><svg width="316.72104" viewBox="0.34 -35.6 160.1 36.190000000000005" height="71.5737391399817" data-palette-color="#000000"><path d="M25.44-34.33L25.44-34.33 24.07-24.02Q23.36-24.22 22.66-24.29 21.95-24.37 21.24-24.37L21.24-24.37Q19.43-24.37 17.8-23.89 16.16-23.41 14.9-22.44 13.65-21.46 12.9-20 12.16-18.53 12.16-16.55L12.16-16.55Q12.16-15.28 12.56-14.36 12.96-13.43 13.7-12.82 14.43-12.21 15.43-11.91 16.43-11.62 17.63-11.62L17.63-11.62Q18.53-11.62 19.51-11.82 20.48-12.01 21.44-12.33 22.39-12.65 23.29-13.06 24.19-13.48 24.95-13.92L24.95-13.92 23.97-2.44Q23.02-1.95 21.91-1.57 20.8-1.2 19.63-0.92 18.46-0.63 17.29-0.49 16.11-0.34 15.04-0.34L15.04-0.34Q11.94-0.34 9.25-1.49 6.57-2.64 4.59-4.64 2.61-6.64 1.48-9.36 0.34-12.08 0.34-15.23L0.34-15.23Q0.34-19.41 1.54-23.11 2.73-26.81 5.05-29.59 7.37-32.37 10.8-33.98 14.23-35.6 18.7-35.6L18.7-35.6Q20.39-35.6 22.16-35.33 23.93-35.06 25.44-34.33ZM56.76-18.7L56.76-18.7Q56.76-16.48 56.25-14.42 55.73-12.35 54.77-10.55 53.81-8.74 52.43-7.24 51.05-5.74 49.33-4.66 47.6-3.59 45.58-2.99 43.55-2.39 41.28-2.39L41.28-2.39Q39.08-2.39 37.09-2.95 35.1-3.52 33.37-4.53 31.64-5.54 30.23-6.97 28.83-8.4 27.84-10.14 26.85-11.89 26.3-13.89 25.75-15.89 25.75-18.07L25.75-18.07Q25.75-20.19 26.27-22.23 26.78-24.27 27.74-26.07 28.71-27.88 30.08-29.39 31.44-30.91 33.14-32.01 34.84-33.11 36.81-33.72 38.79-34.33 40.99-34.33L40.99-34.33Q44.53-34.33 47.45-33.23 50.36-32.13 52.43-30.09 54.49-28.05 55.62-25.16 56.76-22.27 56.76-18.7ZM45.92-18.07L45.92-18.07Q45.92-19.12 45.62-20.1 45.31-21.09 44.72-21.86 44.14-22.63 43.27-23.11 42.4-23.58 41.28-23.58L41.28-23.58Q40.13-23.58 39.23-23.17 38.33-22.75 37.68-22.03 37.03-21.31 36.69-20.35 36.35-19.38 36.35-18.31L36.35-18.31Q36.35-17.29 36.64-16.26 36.94-15.23 37.52-14.4 38.11-13.57 38.97-13.06 39.84-12.55 40.99-12.55L40.99-12.55Q42.14-12.55 43.05-13 43.97-13.45 44.6-14.22 45.24-14.99 45.58-15.99 45.92-16.99 45.92-18.07ZM76.41-34.47L88.23-31.54 77.44-18.7 87.35-1.9 76.02 0.1 68.6-9.96 68.21-0.39 58.05 0 58.83-34.96 70.21-34.33 69.33-24.27 76.41-34.47ZM106.54-34.47L118.35-31.54 107.56-18.7 117.47-1.9 106.14 0.1 98.72-9.96 98.33-0.39 88.18 0 88.96-34.96 100.33-34.33 99.46-24.27 106.54-34.47ZM118.23-33.69L131.22-34.38 129.51-1.12 119.2-0.59 118.23-33.69ZM160.44-19.73L160.44-19.73Q160.44-17.6 160.14-15.48L160.14-15.48Q155.97-15.21 151.84-14.61 147.72-14.01 143.59-13.43L143.59-13.43Q144.23-11.67 145.58-10.62 146.94-9.57 148.82-9.57L148.82-9.57Q149.79-9.57 150.95-9.94 152.11-10.3 153.26-10.85 154.41-11.4 155.46-12.04 156.51-12.67 157.26-13.18L157.26-13.18 156.09-2.1Q155.14-1.37 154.03-0.85 152.92-0.34 151.72-0.02 150.52 0.29 149.3 0.44 148.08 0.59 146.91 0.59L146.91 0.59Q144.49 0.59 142.49-0.07 140.49-0.73 138.87-1.92 137.24-3.1 136.02-4.71 134.8-6.32 134-8.23 133.19-10.13 132.78-12.26 132.36-14.38 132.36-16.55L132.36-16.55Q132.36-18.82 132.78-21.09 133.19-23.36 134.03-25.46 134.88-27.56 136.16-29.36 137.44-31.15 139.15-32.5 140.86-33.84 143.02-34.59 145.18-35.35 147.79-35.35L147.79-35.35Q149.96-35.35 151.76-34.75 153.55-34.16 154.96-33.09 156.36-32.03 157.4-30.57 158.43-29.1 159.11-27.36 159.78-25.61 160.11-23.67 160.44-21.73 160.44-19.73ZM150.67-20.46L150.67-21Q150.67-21.68 150.52-22.4 150.38-23.12 150.05-23.71 149.72-24.29 149.18-24.67 148.64-25.05 147.84-25.05L147.84-25.05Q146.86-25.05 146.12-24.52 145.37-24 144.84-23.21 144.3-22.41 143.96-21.48 143.62-20.56 143.44-19.78L143.44-19.78 150.67-20.46Z" opacity="1" transform="matrix(1,0,0,1,0,0)" fill="black" class="wordmark-text-0" id="SvgjsPath1380"></path></svg></g></svg></g></svg></g></svg></g><g transform="matrix(1,0,0,1,122.42062453605672,0)"><svg viewBox="0 0 111.27927092788656 98.91490749145471" height="98.91490749145471" width="111.27927092788656"><g><svg xmlns="http://www.w3.org/2000/svg" xmlns:xlink="http://www.w3.org/1999/xlink" version="1.1" x="0" y="0" viewBox="0 0 504 448" style="enable-background:new 0 0 504 448;" xml:space="preserve" height="98.91490749145471" width="111.27927092788656" class="icon-icon-0" data-fill-palette-color="accent" id="SvgjsSvg1379"><path d="M124 244h44c4.411 0 8-3.589 8-8v-16c0-4.411-3.589-8-8-8h-44c-4.411 0-8 3.589-8 8v16C116 240.411 119.589 244 124 244zM124 220h44l0.005 16H124V220zM168 256c-4.411 0-8 3.589-8 8v28c0 4.411 3.589 8 8 8h8c4.411 0 8-3.589 8-8v-28c0-4.411-3.589-8-8-8H168zM168 292v-28h8l0.005 28H168zM500 36c2.209 0 4-1.791 4-4s-1.791-4-4-4H392V8c0-4.411-3.589-8-8-8H120c-4.411 0-8 3.589-8 8v20H4c-2.209 0-4 1.791-4 4s1.791 4 4 4h24v44H4c-2.209 0-4 1.791-4 4s1.791 4 4 4h53.089c-21.132 14.155-42.574 32.099-53.557 51.842C1.221 143.994 0 148.706 0 153.468V184c0 4.411 3.589 8 8 8h80v104.431C82.914 291.234 75.829 288 68 288c-15.439 0-28 12.561-28 28v24H8c-4.411 0-8 3.589-8 8v8c0 4.411 3.589 8 8 8h32v8c-4.411 0-8 3.589-8 8v8c0 4.411 3.589 8 8 8v16H4c-2.209 0-4 1.791-4 4s1.791 4 4 4h36v7.199l-11.157 14.345c-0.938 1.206-1.107 2.841-0.436 4.214C29.078 447.13 30.473 448 32 448h72c1.527 0 2.922-0.87 3.593-2.242 0.672-1.373 0.503-3.008-0.436-4.214L96 427.199V420h24v16c0 2.209 1.791 4 4 4s4-1.791 4-4v-16h28v16c0 2.209 1.791 4 4 4s4-1.791 4-4v-16h176v16c0 2.209 1.791 4 4 4s4-1.791 4-4v-16h28v16c0 2.209 1.791 4 4 4s4-1.791 4-4v-16h24v7.199l-11.157 14.345c-0.938 1.206-1.107 2.841-0.436 4.214C397.078 447.13 398.473 448 400 448h72c1.527 0 2.922-0.87 3.593-2.242 0.672-1.373 0.503-3.008-0.436-4.214L464 427.199V420h36c2.209 0 4-1.791 4-4s-1.791-4-4-4h-36v-16c4.411 0 8-3.589 8-8v-8c0-4.411-3.589-8-8-8v-8h32c4.411 0 8-3.589 8-8v-8c0-4.411-3.589-8-8-8h-32v-24c0-14.081-10.449-25.762-24-27.71V288c0-4.411-3.589-8-8-8h-20v-52c0-4.411-3.589-8-8-8h-24v-28h116c4.411 0 8-3.589 8-8v-30.532c0-4.762-1.221-9.474-3.531-13.626-10.984-19.743-32.425-37.687-53.557-51.842H500c2.209 0 4-1.791 4-4s-1.791-4-4-4h-24V36H500zM56 80H36V36h20V80zM420 36h20v44h-5.608c-4.994-3.049-9.841-5.849-14.392-8.376V36zM392 36h20v31.291c-9.164-4.839-16.394-8.239-20-9.882V36zM120 8h264v48H120V8zM92 36h20v21.409c-3.606 1.643-10.836 5.043-20 9.882V36zM64 36h20v35.624c-4.551 2.527-9.397 5.327-14.392 8.376H64V36zM48 316c0-11.028 8.972-20 20-20s20 8.972 20 20v24H48V316zM8 356v-8h120l0.005 8H8zM88 364v8h-8v-8H88zM80 396h8v20.913l-2.523-3.244C81.945 409.129 80 403.46 80 397.707V396zM56 364v8h-8v-8H56zM40 380h16v8H40V380zM56 396v1.707c0 5.753-1.945 11.422-5.477 15.962L48 416.913V396H56zM40.179 440l16.659-21.419C61.456 412.644 64 405.229 64 397.707V364h8v33.707c0 7.522 2.544 14.937 7.162 20.874L95.821 440H40.179zM80 388v-8h16v8H80zM156 412h-28v-8h28V412zM124 396c-2.206 0-4-1.794-4-4s1.794-4 4-4h36l0.005 8H124zM162.551 380.424c-0.084-0.028-0.167-0.058-0.253-0.084l11.824-57.456 3.918 0.807c1.047 0.215 1.946 0.825 2.534 1.718s0.793 1.96 0.577 3.006l-10.218 49.651c-0.215 1.047-0.825 1.946-1.718 2.534-0.893 0.587-1.963 0.79-3.006 0.577L162.551 380.424zM196 412h-32v-9.083c2.387-1.386 4-3.964 4-6.917v-6.779c1.984-0.16 3.907-0.815 5.616-1.941 2.677-1.763 4.507-4.463 5.153-7.602l10.218-49.651c0.646-3.14 0.031-6.343-1.732-9.02-1.763-2.677-4.463-4.507-7.602-5.153l-3.918-0.807c-2.097-0.431-4.229-0.021-6.014 1.155-1.785 1.176-3.005 2.976-3.436 5.068l-11.83 57.489c-0.085 0.416-0.127 0.829-0.147 1.239H124c-6.617 0-12 5.383-12 12 0 5.213 3.347 9.647 8 11.3v8.7H96v-16c4.411 0 8-3.589 8-8v-8c0-4.411-3.589-8-8-8v-8h32c4.411 0 8-3.589 8-8v-8c0-4.411-3.589-8-8-8H96V192h100V412zM264 412h-60V308h60V412zM268 300h-64v-8h64V300zM235.885 264.596c0.119 0.071 0.242 0.136 0.367 0.194l14.431 6.729c0.816 0.554 1.317 1.491 1.317 2.484V284h-32v-40h12v13.735C232 260.529 233.488 263.158 235.885 264.596zM340 412h-68V306.917c2.387-1.386 4-3.964 4-6.917v-8c0-4.411-3.589-8-8-8h-8v-9.997c0-3.843-2.047-7.457-5.341-9.434-0.119-0.071-0.241-0.136-0.367-0.194L240 257.711V244c0-4.411-3.589-8-8-8h-12c-4.411 0-8 3.589-8 8v40h-8v-92h168v28h-24c-4.411 0-8 3.589-8 8v20c0 4.411 3.589 8 8 8h24v8h-16c-4.411 0-8 3.589-8 8v8h-16c-4.411 0-8 3.589-8 8v27.944c-2.989 0.707-5.558 2.488-7.255 5.064-1.764 2.677-2.379 5.88-1.732 9.02l10.218 49.651c0.646 3.139 2.477 5.839 5.153 7.602 1.709 1.126 3.632 1.78 5.616 1.941V396c0 2.953 1.613 5.532 4 6.917V412zM372 228v20h-24v-20H372zM372 272v8h-16v-8H372zM337.778 381.18c-1.044 0.211-2.104 0.006-2.994-0.58-0.893-0.588-1.503-1.487-1.718-2.534l-10.218-49.651c-0.216-1.046-0.011-2.113 0.577-3.006s1.487-1.503 2.534-1.718l3.918-0.806 11.816 57.457L337.778 381.18zM337.714 321.271c-0.431-2.093-1.65-3.893-3.436-5.068-0.711-0.469-1.48-0.81-2.278-1.031V288h40v53.083c-2.387 1.386-4 3.964-4 6.917v8c0 2.953 1.613 5.532 4 6.917V380h-22.309c-0.02-0.411-0.062-0.825-0.147-1.242L337.714 321.271zM376 412h-28v-8h28V412zM380 396h-36v-8h36c2.206 0 4 1.794 4 4S382.206 396 380 396zM408 412h-24v-8.7c4.653-1.653 8-6.087 8-11.3 0-6.617-5.383-12-12-12v-16h28v8c-4.411 0-8 3.589-8 8v8c0 4.411 3.589 8 8 8V412zM408 380h16v8h-16V380zM416 372v-8h8v8H416zM424 396v1.707c0 5.753-1.945 11.422-5.477 15.962L416 416.913V396H424zM408.179 440l16.659-21.419c4.618-5.938 7.162-13.352 7.162-20.874V364h8v33.707c0 7.522 2.544 14.937 7.162 20.874L463.821 440H408.179zM448 397.707V396h8v20.913l-2.523-3.244C449.945 409.129 448 403.46 448 397.707zM464 388h-16v-8h16V388zM448 372v-8h8v8H448zM496 348v8H376v-8H496zM436 296c11.028 0 20 8.972 20 20v24h-40v-24C416 304.972 424.972 296 436 296zM432 288v0.29c-13.551 1.947-24 13.629-24 27.71v24h-28v-52H432zM404 228v52h-24v-52H404zM496 153.468V184H8v-30.532c0-0.491 0.023-0.98 0.059-1.468h487.881C495.977 152.488 496 152.977 496 153.468zM493.479 143.73c0.049 0.088 0.091 0.18 0.139 0.27H10.383c0.048-0.089 0.09-0.181 0.139-0.27 22.96-41.268 98.049-75.998 106.331-79.73h270.294C395.429 67.733 470.519 102.463 493.479 143.73zM468 80h-20V36h20V80z" fill="white"></path></svg></g></svg></g><g></g></svg></g><defs><mask></mask></defs></svg><rect width="296.14368103876706" height="180" fill="black" stroke="none" visibility="hidden"></rect></g></mask><linearGradient x1="0" x2="1" y1="0.5" y2="0.5" id="0674804c-e1fe-4f70-8507-fc3c0e5aa04b"><stop stop-color="#ffa62e" offset="0"></stop><stop stop-color="#f71b3d" offset="1"></stop></linearGradient><rect width="296.1440801984866" height="180" fill="#ffffff" mask="url(#0459de07-52a0-42fb-9a50-8733e871615b)" data-fill-palette-color="accent"></rect><mask id="afc80103-a2f1-48f4-a679-ab61da8ce3d1"><g id="SvgjsG1393"><svg viewBox="0 0 296.14368103876706 180" height="180" width="296.14368103876706"><g><svg viewBox="0 0 356.12052 216.4547066314364" height="180" width="296.14368103876706"><g transform="matrix(1,0,0,1,0,105.48148749145471)"><svg viewBox="0 0 356.12052 110.9732191399817" height="110.9732191399817" width="356.12052"><g><path d="M0 110.973v-110.973h356.121v110.973z" fill="white" stroke="transparent" stroke-width="0" rx="0%"></path><path d="M3.283 107.69v-104.407h349.554v104.407z" fill="black" stroke="transparent" stroke-width="0" rx="0%"></path><path d="M9.85 101.123v-91.273h336.421v91.273z" fill="white" stroke="transparent" stroke-width="0"></path></g><g transform="matrix(1,0,0,1,19.69974,19.69974)" id="SvgjsG1392"><svg viewBox="0 0 316.72104 71.5737391399817" height="71.5737391399817" width="316.72104" id="SvgjsSvg1391"><g><svg viewBox="0 0 316.72104 71.5737391399817" height="71.5737391399817" width="316.72104"><g transform="matrix(1,0,0,1,0,0)"><svg width="316.72104" viewBox="0.34 -35.6 160.1 36.190000000000005" height="71.5737391399817" data-palette-color="#000000"><path d="M25.44-34.33L25.44-34.33 24.07-24.02Q23.36-24.22 22.66-24.29 21.95-24.37 21.24-24.37L21.24-24.37Q19.43-24.37 17.8-23.89 16.16-23.41 14.9-22.44 13.65-21.46 12.9-20 12.16-18.53 12.16-16.55L12.16-16.55Q12.16-15.28 12.56-14.36 12.96-13.43 13.7-12.82 14.43-12.21 15.43-11.91 16.43-11.62 17.63-11.62L17.63-11.62Q18.53-11.62 19.51-11.82 20.48-12.01 21.44-12.33 22.39-12.65 23.29-13.06 24.19-13.48 24.95-13.92L24.95-13.92 23.97-2.44Q23.02-1.95 21.91-1.57 20.8-1.2 19.63-0.92 18.46-0.63 17.29-0.49 16.11-0.34 15.04-0.34L15.04-0.34Q11.94-0.34 9.25-1.49 6.57-2.64 4.59-4.64 2.61-6.64 1.48-9.36 0.34-12.08 0.34-15.23L0.34-15.23Q0.34-19.41 1.54-23.11 2.73-26.81 5.05-29.59 7.37-32.37 10.8-33.98 14.23-35.6 18.7-35.6L18.7-35.6Q20.39-35.6 22.16-35.33 23.93-35.06 25.44-34.33ZM56.76-18.7L56.76-18.7Q56.76-16.48 56.25-14.42 55.73-12.35 54.77-10.55 53.81-8.74 52.43-7.24 51.05-5.74 49.33-4.66 47.6-3.59 45.58-2.99 43.55-2.39 41.28-2.39L41.28-2.39Q39.08-2.39 37.09-2.95 35.1-3.52 33.37-4.53 31.64-5.54 30.23-6.97 28.83-8.4 27.84-10.14 26.85-11.89 26.3-13.89 25.75-15.89 25.75-18.07L25.75-18.07Q25.75-20.19 26.27-22.23 26.78-24.27 27.74-26.07 28.71-27.88 30.08-29.39 31.44-30.91 33.14-32.01 34.84-33.11 36.81-33.72 38.79-34.33 40.99-34.33L40.99-34.33Q44.53-34.33 47.45-33.23 50.36-32.13 52.43-30.09 54.49-28.05 55.62-25.16 56.76-22.27 56.76-18.7ZM45.92-18.07L45.92-18.07Q45.92-19.12 45.62-20.1 45.31-21.09 44.72-21.86 44.14-22.63 43.27-23.11 42.4-23.58 41.28-23.58L41.28-23.58Q40.13-23.58 39.23-23.17 38.33-22.75 37.68-22.03 37.03-21.31 36.69-20.35 36.35-19.38 36.35-18.31L36.35-18.31Q36.35-17.29 36.64-16.26 36.94-15.23 37.52-14.4 38.11-13.57 38.97-13.06 39.84-12.55 40.99-12.55L40.99-12.55Q42.14-12.55 43.05-13 43.97-13.45 44.6-14.22 45.24-14.99 45.58-15.99 45.92-16.99 45.92-18.07ZM76.41-34.47L88.23-31.54 77.44-18.7 87.35-1.9 76.02 0.1 68.6-9.96 68.21-0.39 58.05 0 58.83-34.96 70.21-34.33 69.33-24.27 76.41-34.47ZM106.54-34.47L118.35-31.54 107.56-18.7 117.47-1.9 106.14 0.1 98.72-9.96 98.33-0.39 88.18 0 88.96-34.96 100.33-34.33 99.46-24.27 106.54-34.47ZM118.23-33.69L131.22-34.38 129.51-1.12 119.2-0.59 118.23-33.69ZM160.44-19.73L160.44-19.73Q160.44-17.6 160.14-15.48L160.14-15.48Q155.97-15.21 151.84-14.61 147.72-14.01 143.59-13.43L143.59-13.43Q144.23-11.67 145.58-10.62 146.94-9.57 148.82-9.57L148.82-9.57Q149.79-9.57 150.95-9.94 152.11-10.3 153.26-10.85 154.41-11.4 155.46-12.04 156.51-12.67 157.26-13.18L157.26-13.18 156.09-2.1Q155.14-1.37 154.03-0.85 152.92-0.34 151.72-0.02 150.52 0.29 149.3 0.44 148.08 0.59 146.91 0.59L146.91 0.59Q144.49 0.59 142.49-0.07 140.49-0.73 138.87-1.92 137.24-3.1 136.02-4.71 134.8-6.32 134-8.23 133.19-10.13 132.78-12.26 132.36-14.38 132.36-16.55L132.36-16.55Q132.36-18.82 132.78-21.09 133.19-23.36 134.03-25.46 134.88-27.56 136.16-29.36 137.44-31.15 139.15-32.5 140.86-33.84 143.02-34.59 145.18-35.35 147.79-35.35L147.79-35.35Q149.96-35.35 151.76-34.75 153.55-34.16 154.96-33.09 156.36-32.03 157.4-30.57 158.43-29.1 159.11-27.36 159.78-25.61 160.11-23.67 160.44-21.73 160.44-19.73ZM150.67-20.46L150.67-21Q150.67-21.68 150.52-22.4 150.38-23.12 150.05-23.71 149.72-24.29 149.18-24.67 148.64-25.05 147.84-25.05L147.84-25.05Q146.86-25.05 146.12-24.52 145.37-24 144.84-23.21 144.3-22.41 143.96-21.48 143.62-20.56 143.44-19.78L143.44-19.78 150.67-20.46Z" opacity="1" transform="matrix(1,0,0,1,0,0)" fill="black" class="wordmark-text-0" id="SvgjsPath1390"></path></svg></g></svg></g></svg></g></svg></g><g transform="matrix(1,0,0,1,122.42062453605672,0)"><svg viewBox="0 0 111.27927092788656 98.91490749145471" height="98.91490749145471" width="111.27927092788656"><g><svg xmlns="http://www.w3.org/2000/svg" xmlns:xlink="http://www.w3.org/1999/xlink" version="1.1" x="0" y="0" viewBox="0 0 504 448" style="enable-background:new 0 0 504 448;" xml:space="preserve" height="98.91490749145471" width="111.27927092788656" class="icon-icon-0" data-fill-palette-color="accent" id="SvgjsSvg1389"></svg></g></svg></g><g></g></svg></g><defs><mask></mask></defs><mask><g id="SvgjsG1388"><svg viewBox="0 0 296.14368103876706 180" height="180" width="296.14368103876706"><g><svg viewBox="0 0 356.12052 216.4547066314364" height="180" width="296.14368103876706"><g transform="matrix(1,0,0,1,0,105.48148749145471)"><svg viewBox="0 0 356.12052 110.9732191399817" height="110.9732191399817" width="356.12052"><g><path d="M0 110.973v-110.973h356.121v110.973z" fill="black" stroke="transparent" stroke-width="0" rx="0%"></path><path d="M3.283 107.69v-104.407h349.554v104.407z" fill="black" stroke="transparent" stroke-width="0" rx="0%"></path><path d="M9.85 101.123v-91.273h336.421v91.273z" fill="black" stroke="transparent" stroke-width="0"></path></g><g transform="matrix(1,0,0,1,19.69974,19.69974)" id="SvgjsG1387"><svg viewBox="0 0 316.72104 71.5737391399817" height="71.5737391399817" width="316.72104" id="SvgjsSvg1386"><g><svg viewBox="0 0 316.72104 71.5737391399817" height="71.5737391399817" width="316.72104"><g transform="matrix(1,0,0,1,0,0)"><svg width="316.72104" viewBox="0.34 -35.6 160.1 36.190000000000005" height="71.5737391399817" data-palette-color="#000000"><path d="M25.44-34.33L25.44-34.33 24.07-24.02Q23.36-24.22 22.66-24.29 21.95-24.37 21.24-24.37L21.24-24.37Q19.43-24.37 17.8-23.89 16.16-23.41 14.9-22.44 13.65-21.46 12.9-20 12.16-18.53 12.16-16.55L12.16-16.55Q12.16-15.28 12.56-14.36 12.96-13.43 13.7-12.82 14.43-12.21 15.43-11.91 16.43-11.62 17.63-11.62L17.63-11.62Q18.53-11.62 19.51-11.82 20.48-12.01 21.44-12.33 22.39-12.65 23.29-13.06 24.19-13.48 24.95-13.92L24.95-13.92 23.97-2.44Q23.02-1.95 21.91-1.57 20.8-1.2 19.63-0.92 18.46-0.63 17.29-0.49 16.11-0.34 15.04-0.34L15.04-0.34Q11.94-0.34 9.25-1.49 6.57-2.64 4.59-4.64 2.61-6.64 1.48-9.36 0.34-12.08 0.34-15.23L0.34-15.23Q0.34-19.41 1.54-23.11 2.73-26.81 5.05-29.59 7.37-32.37 10.8-33.98 14.23-35.6 18.7-35.6L18.7-35.6Q20.39-35.6 22.16-35.33 23.93-35.06 25.44-34.33ZM56.76-18.7L56.76-18.7Q56.76-16.48 56.25-14.42 55.73-12.35 54.77-10.55 53.81-8.74 52.43-7.24 51.05-5.74 49.33-4.66 47.6-3.59 45.58-2.99 43.55-2.39 41.28-2.39L41.28-2.39Q39.08-2.39 37.09-2.95 35.1-3.52 33.37-4.53 31.64-5.54 30.23-6.97 28.83-8.4 27.84-10.14 26.85-11.89 26.3-13.89 25.75-15.89 25.75-18.07L25.75-18.07Q25.75-20.19 26.27-22.23 26.78-24.27 27.74-26.07 28.71-27.88 30.08-29.39 31.44-30.91 33.14-32.01 34.84-33.11 36.81-33.72 38.79-34.33 40.99-34.33L40.99-34.33Q44.53-34.33 47.45-33.23 50.36-32.13 52.43-30.09 54.49-28.05 55.62-25.16 56.76-22.27 56.76-18.7ZM45.92-18.07L45.92-18.07Q45.92-19.12 45.62-20.1 45.31-21.09 44.72-21.86 44.14-22.63 43.27-23.11 42.4-23.58 41.28-23.58L41.28-23.58Q40.13-23.58 39.23-23.17 38.33-22.75 37.68-22.03 37.03-21.31 36.69-20.35 36.35-19.38 36.35-18.31L36.35-18.31Q36.35-17.29 36.64-16.26 36.94-15.23 37.52-14.4 38.11-13.57 38.97-13.06 39.84-12.55 40.99-12.55L40.99-12.55Q42.14-12.55 43.05-13 43.97-13.45 44.6-14.22 45.24-14.99 45.58-15.99 45.92-16.99 45.92-18.07ZM76.41-34.47L88.23-31.54 77.44-18.7 87.35-1.9 76.02 0.1 68.6-9.96 68.21-0.39 58.05 0 58.83-34.96 70.21-34.33 69.33-24.27 76.41-34.47ZM106.54-34.47L118.35-31.54 107.56-18.7 117.47-1.9 106.14 0.1 98.72-9.96 98.33-0.39 88.18 0 88.96-34.96 100.33-34.33 99.46-24.27 106.54-34.47ZM118.23-33.69L131.22-34.38 129.51-1.12 119.2-0.59 118.23-33.69ZM160.44-19.73L160.44-19.73Q160.44-17.6 160.14-15.48L160.14-15.48Q155.97-15.21 151.84-14.61 147.72-14.01 143.59-13.43L143.59-13.43Q144.23-11.67 145.58-10.62 146.94-9.57 148.82-9.57L148.82-9.57Q149.79-9.57 150.95-9.94 152.11-10.3 153.26-10.85 154.41-11.4 155.46-12.04 156.51-12.67 157.26-13.18L157.26-13.18 156.09-2.1Q155.14-1.37 154.03-0.85 152.92-0.34 151.72-0.02 150.52 0.29 149.3 0.44 148.08 0.59 146.91 0.59L146.91 0.59Q144.49 0.59 142.49-0.07 140.49-0.73 138.87-1.92 137.24-3.1 136.02-4.71 134.8-6.32 134-8.23 133.19-10.13 132.78-12.26 132.36-14.38 132.36-16.55L132.36-16.55Q132.36-18.82 132.78-21.09 133.19-23.36 134.03-25.46 134.88-27.56 136.16-29.36 137.44-31.15 139.15-32.5 140.86-33.84 143.02-34.59 145.18-35.35 147.79-35.35L147.79-35.35Q149.96-35.35 151.76-34.75 153.55-34.16 154.96-33.09 156.36-32.03 157.4-30.57 158.43-29.1 159.11-27.36 159.78-25.61 160.11-23.67 160.44-21.73 160.44-19.73ZM150.67-20.46L150.67-21Q150.67-21.68 150.52-22.4 150.38-23.12 150.05-23.71 149.72-24.29 149.18-24.67 148.64-25.05 147.84-25.05L147.84-25.05Q146.86-25.05 146.12-24.52 145.37-24 144.84-23.21 144.3-22.41 143.96-21.48 143.62-20.56 143.44-19.78L143.44-19.78 150.67-20.46Z" opacity="1" transform="matrix(1,0,0,1,0,0)" fill="black" class="wordmark-text-0" id="SvgjsPath1385"></path></svg></g></svg></g></svg></g></svg></g><g transform="matrix(1,0,0,1,122.42062453605672,0)"><svg viewBox="0 0 111.27927092788656 98.91490749145471" height="98.91490749145471" width="111.27927092788656"><g><svg xmlns="http://www.w3.org/2000/svg" xmlns:xlink="http://www.w3.org/1999/xlink" version="1.1" x="0" y="0" viewBox="0 0 504 448" style="enable-background:new 0 0 504 448;" xml:space="preserve" height="98.91490749145471" width="111.27927092788656" class="icon-icon-0" data-fill-palette-color="accent" id="SvgjsSvg1384"><path d="M124 244h44c4.411 0 8-3.589 8-8v-16c0-4.411-3.589-8-8-8h-44c-4.411 0-8 3.589-8 8v16C116 240.411 119.589 244 124 244zM124 220h44l0.005 16H124V220zM168 256c-4.411 0-8 3.589-8 8v28c0 4.411 3.589 8 8 8h8c4.411 0 8-3.589 8-8v-28c0-4.411-3.589-8-8-8H168zM168 292v-28h8l0.005 28H168zM500 36c2.209 0 4-1.791 4-4s-1.791-4-4-4H392V8c0-4.411-3.589-8-8-8H120c-4.411 0-8 3.589-8 8v20H4c-2.209 0-4 1.791-4 4s1.791 4 4 4h24v44H4c-2.209 0-4 1.791-4 4s1.791 4 4 4h53.089c-21.132 14.155-42.574 32.099-53.557 51.842C1.221 143.994 0 148.706 0 153.468V184c0 4.411 3.589 8 8 8h80v104.431C82.914 291.234 75.829 288 68 288c-15.439 0-28 12.561-28 28v24H8c-4.411 0-8 3.589-8 8v8c0 4.411 3.589 8 8 8h32v8c-4.411 0-8 3.589-8 8v8c0 4.411 3.589 8 8 8v16H4c-2.209 0-4 1.791-4 4s1.791 4 4 4h36v7.199l-11.157 14.345c-0.938 1.206-1.107 2.841-0.436 4.214C29.078 447.13 30.473 448 32 448h72c1.527 0 2.922-0.87 3.593-2.242 0.672-1.373 0.503-3.008-0.436-4.214L96 427.199V420h24v16c0 2.209 1.791 4 4 4s4-1.791 4-4v-16h28v16c0 2.209 1.791 4 4 4s4-1.791 4-4v-16h176v16c0 2.209 1.791 4 4 4s4-1.791 4-4v-16h28v16c0 2.209 1.791 4 4 4s4-1.791 4-4v-16h24v7.199l-11.157 14.345c-0.938 1.206-1.107 2.841-0.436 4.214C397.078 447.13 398.473 448 400 448h72c1.527 0 2.922-0.87 3.593-2.242 0.672-1.373 0.503-3.008-0.436-4.214L464 427.199V420h36c2.209 0 4-1.791 4-4s-1.791-4-4-4h-36v-16c4.411 0 8-3.589 8-8v-8c0-4.411-3.589-8-8-8v-8h32c4.411 0 8-3.589 8-8v-8c0-4.411-3.589-8-8-8h-32v-24c0-14.081-10.449-25.762-24-27.71V288c0-4.411-3.589-8-8-8h-20v-52c0-4.411-3.589-8-8-8h-24v-28h116c4.411 0 8-3.589 8-8v-30.532c0-4.762-1.221-9.474-3.531-13.626-10.984-19.743-32.425-37.687-53.557-51.842H500c2.209 0 4-1.791 4-4s-1.791-4-4-4h-24V36H500zM56 80H36V36h20V80zM420 36h20v44h-5.608c-4.994-3.049-9.841-5.849-14.392-8.376V36zM392 36h20v31.291c-9.164-4.839-16.394-8.239-20-9.882V36zM120 8h264v48H120V8zM92 36h20v21.409c-3.606 1.643-10.836 5.043-20 9.882V36zM64 36h20v35.624c-4.551 2.527-9.397 5.327-14.392 8.376H64V36zM48 316c0-11.028 8.972-20 20-20s20 8.972 20 20v24H48V316zM8 356v-8h120l0.005 8H8zM88 364v8h-8v-8H88zM80 396h8v20.913l-2.523-3.244C81.945 409.129 80 403.46 80 397.707V396zM56 364v8h-8v-8H56zM40 380h16v8H40V380zM56 396v1.707c0 5.753-1.945 11.422-5.477 15.962L48 416.913V396H56zM40.179 440l16.659-21.419C61.456 412.644 64 405.229 64 397.707V364h8v33.707c0 7.522 2.544 14.937 7.162 20.874L95.821 440H40.179zM80 388v-8h16v8H80zM156 412h-28v-8h28V412zM124 396c-2.206 0-4-1.794-4-4s1.794-4 4-4h36l0.005 8H124zM162.551 380.424c-0.084-0.028-0.167-0.058-0.253-0.084l11.824-57.456 3.918 0.807c1.047 0.215 1.946 0.825 2.534 1.718s0.793 1.96 0.577 3.006l-10.218 49.651c-0.215 1.047-0.825 1.946-1.718 2.534-0.893 0.587-1.963 0.79-3.006 0.577L162.551 380.424zM196 412h-32v-9.083c2.387-1.386 4-3.964 4-6.917v-6.779c1.984-0.16 3.907-0.815 5.616-1.941 2.677-1.763 4.507-4.463 5.153-7.602l10.218-49.651c0.646-3.14 0.031-6.343-1.732-9.02-1.763-2.677-4.463-4.507-7.602-5.153l-3.918-0.807c-2.097-0.431-4.229-0.021-6.014 1.155-1.785 1.176-3.005 2.976-3.436 5.068l-11.83 57.489c-0.085 0.416-0.127 0.829-0.147 1.239H124c-6.617 0-12 5.383-12 12 0 5.213 3.347 9.647 8 11.3v8.7H96v-16c4.411 0 8-3.589 8-8v-8c0-4.411-3.589-8-8-8v-8h32c4.411 0 8-3.589 8-8v-8c0-4.411-3.589-8-8-8H96V192h100V412zM264 412h-60V308h60V412zM268 300h-64v-8h64V300zM235.885 264.596c0.119 0.071 0.242 0.136 0.367 0.194l14.431 6.729c0.816 0.554 1.317 1.491 1.317 2.484V284h-32v-40h12v13.735C232 260.529 233.488 263.158 235.885 264.596zM340 412h-68V306.917c2.387-1.386 4-3.964 4-6.917v-8c0-4.411-3.589-8-8-8h-8v-9.997c0-3.843-2.047-7.457-5.341-9.434-0.119-0.071-0.241-0.136-0.367-0.194L240 257.711V244c0-4.411-3.589-8-8-8h-12c-4.411 0-8 3.589-8 8v40h-8v-92h168v28h-24c-4.411 0-8 3.589-8 8v20c0 4.411 3.589 8 8 8h24v8h-16c-4.411 0-8 3.589-8 8v8h-16c-4.411 0-8 3.589-8 8v27.944c-2.989 0.707-5.558 2.488-7.255 5.064-1.764 2.677-2.379 5.88-1.732 9.02l10.218 49.651c0.646 3.139 2.477 5.839 5.153 7.602 1.709 1.126 3.632 1.78 5.616 1.941V396c0 2.953 1.613 5.532 4 6.917V412zM372 228v20h-24v-20H372zM372 272v8h-16v-8H372zM337.778 381.18c-1.044 0.211-2.104 0.006-2.994-0.58-0.893-0.588-1.503-1.487-1.718-2.534l-10.218-49.651c-0.216-1.046-0.011-2.113 0.577-3.006s1.487-1.503 2.534-1.718l3.918-0.806 11.816 57.457L337.778 381.18zM337.714 321.271c-0.431-2.093-1.65-3.893-3.436-5.068-0.711-0.469-1.48-0.81-2.278-1.031V288h40v53.083c-2.387 1.386-4 3.964-4 6.917v8c0 2.953 1.613 5.532 4 6.917V380h-22.309c-0.02-0.411-0.062-0.825-0.147-1.242L337.714 321.271zM376 412h-28v-8h28V412zM380 396h-36v-8h36c2.206 0 4 1.794 4 4S382.206 396 380 396zM408 412h-24v-8.7c4.653-1.653 8-6.087 8-11.3 0-6.617-5.383-12-12-12v-16h28v8c-4.411 0-8 3.589-8 8v8c0 4.411 3.589 8 8 8V412zM408 380h16v8h-16V380zM416 372v-8h8v8H416zM424 396v1.707c0 5.753-1.945 11.422-5.477 15.962L416 416.913V396H424zM408.179 440l16.659-21.419c4.618-5.938 7.162-13.352 7.162-20.874V364h8v33.707c0 7.522 2.544 14.937 7.162 20.874L463.821 440H408.179zM448 397.707V396h8v20.913l-2.523-3.244C449.945 409.129 448 403.46 448 397.707zM464 388h-16v-8h16V388zM448 372v-8h8v8H448zM496 348v8H376v-8H496zM436 296c11.028 0 20 8.972 20 20v24h-40v-24C416 304.972 424.972 296 436 296zM432 288v0.29c-13.551 1.947-24 13.629-24 27.71v24h-28v-52H432zM404 228v52h-24v-52H404zM496 153.468V184H8v-30.532c0-0.491 0.023-0.98 0.059-1.468h487.881C495.977 152.488 496 152.977 496 153.468zM493.479 143.73c0.049 0.088 0.091 0.18 0.139 0.27H10.383c0.048-0.089 0.09-0.181 0.139-0.27 22.96-41.268 98.049-75.998 106.331-79.73h270.294C395.429 67.733 470.519 102.463 493.479 143.73zM468 80h-20V36h20V80z" fill="black"></path></svg></g></svg></g><g></g></svg></g><defs><mask></mask></defs></svg><rect width="296.14368103876706" height="180" fill="black" stroke="none" visibility="hidden"></rect></g></mask></svg><rect width="296.14368103876706" height="180" fill="black" stroke="none" visibility="hidden"></rect></g></mask><linearGradient x1="0" x2="1" y1="0.5" y2="0.5" id="66d1a487-df4c-4f88-82c1-ce5447667780"><stop stop-color="#ffa62e" offset="0"></stop><stop stop-color="#f71b3d" offset="1"></stop></linearGradient></svg><rect width="296.14368103876706" height="180" fill="none" stroke="none" visibility="hidden"></rect></g></svg></g></svg>